<svg width="375" height="812" viewBox="0 0 375 812" fill="none" xmlns="http://www.w3.org/2000/svg">
<path d="M164.5 11.5L138.5 -105.5H258L278 -13L164.5 11.5Z" fill="#001258" stroke="#001258"/>
<path d="M261 4.5L181.5 22.5L183.5 34L181 34.5L183 45L180 46L182.5 56L179.5 57L181 62.5L184 62L186.5 71L193 74.5L272.5 57V52H281.5L283 50L281.5 47.5H276.5L267 8.5L262 9.5L261 4.5Z" fill="#001258" stroke="#001258"/>
<path d="M125.5 -28.5L-16 3V-106.5H109L125.5 -28.5Z" fill="#001258" stroke="#001258"/>
<path d="M2.5 155L-13 158.5V138.5L4 135.5L3.5 131L45 123V126L54 124L56.5 134L61.5 133L71.5 176.5L66.5 177.5V182L57.5 183L58.5 188.5L49.5 190L48.5 181L52.5 180L45 146.5L38.5 147.5L41 160L20 165L17 152L4.5 155V153.5H2.5V155Z" fill="#001258" stroke="#001258"/>
<path d="M-3.5 49.5L-10.5 16.5L116.5 -11.5L123.5 22.5L-3.5 49.5Z" fill="#001258" stroke="#001258"/>
<path d="M-13 196.5V216L10.5 210.5L11.5 213.5L31 209L26 188L-13 196.5Z" fill="#001258"/>
<path d="M89 195L84.5 177L100.5 173.5L99 167.5L146 157L144.5 150.5L136.5 152L132 130.5L139 129L138 122L82 134.5L81 129L75.5 130.5L72.5 120L145.5 104.5L159.5 171.5L109 183L111 190L89 195Z" fill="#001258"/>
<path d="M86 164L83.5 164.5L80 146L97.5 143L105 148.5L106 155L85 159L86 164Z" fill="#001258"/>
<path d="M297.5 59L296 49L322.5 44.5L325.5 57L331 56L332.5 66L311.5 70L309 57L297.5 59Z" fill="#001258"/>
<path d="M225.5 86.5L228 97L231 96.5L235.5 118.5L232 119.5L234 127.5L281 116.5L287.5 142.5L285.5 143L287.5 149.5L350.5 135.5L338 82.5L302.5 90.5L305.5 102.5L279 108.5L273.5 86.5L276 85.5L274 76.5L264.5 78.5L265 81.5L236.5 88L236 84.5L225.5 86.5Z" fill="#001258"/>
<path d="M243 131.5L236.5 133L241 151L247.5 149.5L243 131.5Z" fill="#001258"/>
<path d="M-4 326.5L-13 328V318L-6.5 317L-4 326.5Z" fill="#001258"/>
<path d="M-8 313L-13 314V267L0.5 264.5L2.5 275L-10 278L-5 303.5L-10 304.5L-8 313Z" fill="#001258"/>
<path d="M2.5 300.5L-2 301.5L4 327L8 326L9 330L49.5 321L49 318.5L56 317L56.5 319L97.5 309.5L90 276.5L49 285L49.5 287.5L43 289L42.5 287L1.5 296.5L2.5 300.5Z" fill="#001258"/>
<path d="M49.5 354.5L-13 368V354.5L46.5 340L49.5 354.5Z" fill="#001258"/>
<path d="M-6.5 400L-13 401V427L-1 424.5L-6.5 400Z" fill="#001258"/>
<path d="M-13 401L-6.5 400L-1 424.5L-13 427V400.5M-13 216V196.5L26 188L31 209L11.5 213.5L10.5 210.5L-13 216ZM84.5 177L89 195L111 190L109 183L159.5 171.5L145.5 104.5L72.5 120L75.5 130.5L81 129L82 134.5L138 122L139 129L132 130.5L136.5 152L144.5 150.5L146 157L99 167.5L100.5 173.5L84.5 177ZM83.5 164.5L86 164L85 159L106 155L105 148.5L97.5 143L80 146L83.5 164.5ZM296 49L297.5 59L309 57L311.5 70L332.5 66L331 56L325.5 57L322.5 44.5L296 49ZM228 97L225.5 86.5L236 84.5L236.5 88L265 81.5L264.5 78.5L274 76.5L276 85.5L273.5 86.5L279 108.5L305.5 102.5L302.5 90.5L338 82.5L350.5 135.5L287.5 149.5L285.5 143L287.5 142.5L281 116.5L234 127.5L232 119.5L235.5 118.5L231 96.5L228 97ZM236.5 133L243 131.5L247.5 149.5L241 151L236.5 133ZM-13 328L-4 326.5L-6.5 317L-13 318V328ZM-13 314L-8 313L-10 304.5L-5 303.5L-10 278L2.5 275C2.5 275 1.28105 268.601 0.5 264.5L-13 267V314ZM-2 301.5L2.5 300.5L1.5 296.5L42.5 287L43 289L49.5 287.5L49 285L90 276.5L97.5 309.5L56.5 319L56 317L49 318.5L49.5 321L9 330L8 326L4 327L-2 301.5ZM-13 368L49.5 354.5L46.5 340L-13 354.5V368Z" stroke="#001258"/>
<path d="M44 398L38 373L42.5 372L41 366L80 357.5L81 363.5L85.5 362.5L91.5 387.5L87 388.5L88 394L49.5 403L48.5 397L44 398Z" fill="#001258"/>
<path d="M166.5 337.5L159.5 309L171.5 307L164.5 284.5L188 279L186.5 271L218.5 263.5L236 255L225.5 211L245 206.5L243 194.5L260.5 191L273 244.5L259 249.5L263 267L278 263.5L280 274.5L263 279L269 302L247 306L239 273L215 279L223 325.5L166.5 337.5Z" fill="#001258"/>
<path d="M309 220L297.5 222.5L291.5 194.5L302 175L311.5 182L307 188.5L315.5 194.5L330.5 169L340.5 175L325 199.5L340.5 209.5L345 203.5L337 198L342.5 188.5L360.5 200.5L350.5 216.5L359 222.5L365 212L374 219L378.5 212V237L368 230L362 238L305 202L309 220Z" fill="#001258"/>
<path d="M352.5 171.5L345 179L355.5 184.5L360.5 180L368 189.5L363 197L376.5 207.5L378.5 205.5V182L368 171.5L378.5 169V161L362 165.5L360.5 162.5L348 165.5L352.5 171.5Z" fill="#001258"/>
<path d="M299.5 227L304 249.5L318.5 244.5L329 238L325 222.5L299.5 227Z" fill="#001258"/>
<path d="M316.5 267L318.5 273.5L321.5 273L325.5 290.5L346.5 285L347 286.5L363.5 282.5L364 285.5L368.5 285L370 295L379 293V274L359 279L354.5 261.5L378.5 256.5V240L340.5 249.5L342.5 255.5L318.5 261.5L320 265.5L316.5 267Z" fill="#001258"/>
<path d="M24.5 506.5L6.5 510L-9.5 440.5L64 424L69 447.5L17.5 459.5L22 481L54 474L54.5 475.5L57.5 474.5L61.5 492.5L58.5 493V495L24.5 502V506.5Z" fill="#001258"/>
<path d="M106 417.5L96.5 419.5L99.5 431L112 428L118.5 457.5L75.5 467.5L76.5 472L72.5 473L74.5 484.5L79 484L80 488L127 477.5C128.667 476.833 132.6 475.1 135 473.5C137.4 471.9 137.667 464.833 137.5 461.5L129 422.5L126 423L124 414.5L106.5 419L106 417.5Z" fill="#001258"/>
<path d="M44 398L38 373L42.5 372L41 366L80 357.5L81 363.5L85.5 362.5L91.5 387.5L87 388.5L88 394L49.5 403L48.5 397L44 398Z" stroke="#001258"/>
<path d="M166.5 337.5L159.5 309L171.5 307L164.5 284.5L188 279L186.5 271L218.5 263.5L236 255L225.5 211L245 206.5L243 194.5L260.5 191L273 244.5L259 249.5L263 267L278 263.5L280 274.5L263 279L269 302L247 306L239 273L215 279L223 325.5L166.5 337.5Z" stroke="#001258"/>
<path d="M309 220L297.5 222.5L291.5 194.5L302 175L311.5 182L307 188.5L315.5 194.5L330.5 169L340.5 175L325 199.5L340.5 209.5L345 203.5L337 198L342.5 188.5L360.5 200.5L350.5 216.5L359 222.5L365 212L374 219L378.5 212V237L368 230L362 238L305 202L309 220Z" stroke="#001258"/>
<path d="M352.5 171.5L345 179L355.5 184.5L360.5 180L368 189.5L363 197L376.5 207.5L378.5 205.5V182L368 171.5L378.5 169V161L362 165.5L360.5 162.5L348 165.5L352.5 171.5Z" stroke="#001258"/>
<path d="M299.5 227L304 249.5L318.5 244.5L329 238L325 222.5L299.5 227Z" stroke="#001258"/>
<path d="M316.5 267L318.5 273.5L321.5 273L325.5 290.5L346.5 285L347 286.5L363.5 282.5L364 285.5L368.5 285L370 295L379 293V274L359 279L354.5 261.5L378.5 256.5V240L340.5 249.5L342.5 255.5L318.5 261.5L320 265.5L316.5 267Z" stroke="#001258"/>
<path d="M24.5 506.5L6.5 510L-9.5 440.5L64 424L69 447.5L17.5 459.5L22 481L54 474L54.5 475.5L57.5 474.5L61.5 492.5L58.5 493V495L24.5 502V506.5Z" stroke="#001258"/>
<path d="M106 417.5L96.5 419.5L99.5 431L112 428L118.5 457.5L75.5 467.5L76.5 472L72.5 473L74.5 484.5L79 484L80 488L127 477.5C128.667 476.833 132.6 475.1 135 473.5C137.4 471.9 137.667 464.833 137.5 461.5L129 422.5L126 423L124 414.5L106.5 419L106 417.5Z" stroke="#001258"/>
<path d="M-12 240.5L271.5 177.5L333 461.5M122 -107L165.5 86L-12 123" stroke="#001258" stroke-width="5" stroke-linecap="square" stroke-linejoin="round"/>
<path d="M112 212.5L176 498L379.5 451" stroke="#001258" stroke-width="5" stroke-linecap="square" stroke-linejoin="round"/>
<path d="M-8.5 542L-7.95808 541.871L-21 481.5L-8.5 542Z" fill="#001258"/>
<path d="M177 498L-8.5 542L-21 481.5L10 625L202 628.5L380 585" stroke="#001258" stroke-width="5" stroke-linecap="square" stroke-linejoin="round"/>
<path d="M195 524.5L203 560.5L197 563L200 576.5L206 574.5L212.5 605.5L326 580L321 555L314.5 556L306 516.5L314.5 515L311 501L195 524.5Z" fill="#001258" stroke="#001258" stroke-width="5" stroke-linecap="square" stroke-linejoin="round"/>
<path d="M133 251L147 277.5L149.5 271L158 274.5L159.5 269L166 271L169.5 266.5L175.5 271L178 263.5L185 269L188.5 262.5L195.5 266.5V249L182 210L179 218.5L172 212L169.5 220.5L162 214.5L159.5 224.5L152.5 216.5L149.5 224.5L144 218.5L140 227.5L133 222V251Z" fill="#001258"/>
<path d="M209.5 345L161.5 357.5L158 363.5L187 480.5L237.5 470.5L252 462.5L264 466.5L313.5 455L318.5 450.5L291.5 334.5L280 330L237.5 339L225.5 345H209.5Z" fill="#001258"/>
<path d="M133 251L147 277.5L149.5 271L158 274.5L159.5 269L166 271L169.5 266.5L175.5 271L178 263.5L185 269L188.5 262.5L195.5 266.5V249L182 210L179 218.5L172 212L169.5 220.5L162 214.5L159.5 224.5L152.5 216.5L149.5 224.5L144 218.5L140 227.5L133 222V251Z" stroke="#001258" stroke-width="5" stroke-linecap="square" stroke-linejoin="round"/>
<path d="M209.5 345L161.5 357.5L158 363.5L187 480.5L237.5 470.5L252 462.5L264 466.5L313.5 455L318.5 450.5L291.5 334.5L280 330L237.5 339L225.5 345H209.5Z" stroke="#001258" stroke-width="5" stroke-linecap="square" stroke-linejoin="round"/>
<path d="M342.5 -102.501L296.5 -92.501L320 12.9991L367 1.99905L342.5 -102.501Z" fill="#001258"/>
<path d="M23.5 599.5L15.5 559.5L46.5 552.5L50 566L72.5 562.5L77 589L23.5 599.5Z" fill="#001258"/>
<path d="M154.5 534.5L79.5 552.5L89 597L104 594L97 564.5L112 562.5L118 589L133.5 587L127 559.5L142.5 555.5L148.5 583L165 580.5L154.5 534.5Z" fill="#001258"/>
<path d="M69.5 675L49.5 678.5L41.5 649.5L63 644.5L69.5 675Z" fill="#001258"/>
<path d="M110.5 659V678.5L165.5 680.5L178.5 732.5L175.5 741.5L193.5 748V725H198L180.5 665L172.5 667V659H110.5Z" fill="#001258"/>
<path d="M275.5 641.5L278.5 655L341 643L337 627.5H332L329.5 619.5L275.5 631L278.5 641.5H275.5Z" fill="#001258"/>
<path d="M328.5 654L311.5 657.5L314.5 667L329.5 663L328.5 654Z" fill="#001258"/>
<path d="M333.5 665L331 666L334 682L338 681L339 687L354.5 683L355.5 686.5L378.5 681V638L373 626.5L355.5 631L354.5 634.5H352.5L356.5 656L333 660.5L333.5 665Z" fill="#001258"/>
<path d="M43.5 826.5L9.5 834L16.5 867.5L51 860L43.5 826.5Z" fill="#001258"/>
<path d="M124 802L93.5 808.5L99 832L130 825L124 802Z" fill="#001258"/>
<path d="M34.5 878.5L38 893.5L63.5 888.5L66.5 898.5L59.5 900L66.5 932.5L93.5 926.5L86.5 892L78.5 893.5L77 885L102.5 880L99 865.5L34.5 878.5Z" fill="#001258"/>
<path d="M43.5 689L49.5 715.5L56.5 714L61.5 734.5L54.5 736.5L58.5 758.5L110.5 746.5L109 732.5L131 726L126 708L118.5 709.5L121 718.5L106.5 721.5L95 678.5L43.5 689Z" fill="#001258"/>
<path d="M124 740L130 768L132.5 767L138 790L134 791L137 805L162 799.5L159.5 784.5L154 785.5L148.5 763.5L154 762L148.5 735H143L141 727.5L132.5 728.5L133.5 738L124 740Z" fill="#001258"/>
<path d="M283.5 825L219 838.5L224 868L290 854.5L283.5 825Z" fill="#001258"/>
<path d="M321 686.5L267.5 694.5L275.5 713.5L325.5 703L321 686.5Z" fill="#001258"/>
<path d="M321 713.5L303.5 716L306 725L321 721.5V713.5Z" fill="#001258"/>
<path d="M270 713.5L255 716L257 727.5L264 726L270 746.5L283.5 743.5L278.5 721.5H272.5L270 713.5Z" fill="#001258"/>
<path d="M275.5 751L264 753.5L270 771L280.5 768L275.5 751Z" fill="#001258"/>
<path d="M330.5 305.5H317.5L328 355L341 352L330.5 305.5Z" fill="#001258"/>
<path d="M341 367.5L330.5 370.5L341 422L354 418.5L341 367.5Z" fill="#001258"/>
<path d="M366.5 426L351 429.5L354 443.5L370 440L366.5 426Z" fill="#001258"/>
<path d="M354 334.5L366.5 380.5L394 387V367.5L390.5 319.5L354 334.5Z" fill="#001258"/>
<path d="M342.5 -102.501L296.5 -92.501L320 12.9991L367 1.99905L342.5 -102.501Z" stroke="#001258" stroke-linecap="square" stroke-linejoin="round"/>
<path d="M23.5 599.5L15.5 559.5L46.5 552.5L50 566L72.5 562.5L77 589L23.5 599.5Z" stroke="#001258" stroke-linecap="square" stroke-linejoin="round"/>
<path d="M154.5 534.5L79.5 552.5L89 597L104 594L97 564.5L112 562.5L118 589L133.5 587L127 559.5L142.5 555.5L148.5 583L165 580.5L154.5 534.5Z" stroke="#001258" stroke-linecap="square" stroke-linejoin="round"/>
<path d="M69.5 675L49.5 678.5L41.5 649.5L63 644.5L69.5 675Z" stroke="#001258" stroke-linecap="square" stroke-linejoin="round"/>
<path d="M110.5 659V678.5L165.5 680.5L178.5 732.5L175.5 741.5L193.5 748V725H198L180.5 665L172.5 667V659H110.5Z" stroke="#001258" stroke-linecap="square" stroke-linejoin="round"/>
<path d="M275.5 641.5L278.5 655L341 643L337 627.5H332L329.5 619.5L275.5 631L278.5 641.5H275.5Z" stroke="#001258" stroke-linecap="square" stroke-linejoin="round"/>
<path d="M328.5 654L311.5 657.5L314.5 667L329.5 663L328.5 654Z" stroke="#001258" stroke-linecap="square" stroke-linejoin="round"/>
<path d="M333.5 665L331 666L334 682L338 681L339 687L354.5 683L355.5 686.5L378.5 681V638L373 626.5L355.5 631L354.5 634.5H352.5L356.5 656L333 660.5L333.5 665Z" stroke="#001258" stroke-linecap="square" stroke-linejoin="round"/>
<path d="M43.5 826.5L9.5 834L16.5 867.5L51 860L43.5 826.5Z" stroke="#001258" stroke-linecap="square" stroke-linejoin="round"/>
<path d="M124 802L93.5 808.5L99 832L130 825L124 802Z" stroke="#001258" stroke-linecap="square" stroke-linejoin="round"/>
<path d="M34.5 878.5L38 893.5L63.5 888.5L66.5 898.5L59.5 900L66.5 932.5L93.5 926.5L86.5 892L78.5 893.5L77 885L102.5 880L99 865.5L34.5 878.5Z" stroke="#001258" stroke-linecap="square" stroke-linejoin="round"/>
<path d="M43.5 689L49.5 715.5L56.5 714L61.5 734.5L54.5 736.5L58.5 758.5L110.5 746.5L109 732.5L131 726L126 708L118.5 709.5L121 718.5L106.5 721.5L95 678.5L43.5 689Z" stroke="#001258" stroke-linecap="square" stroke-linejoin="round"/>
<path d="M124 740L130 768L132.5 767L138 790L134 791L137 805L162 799.5L159.5 784.5L154 785.5L148.5 763.5L154 762L148.5 735H143L141 727.5L132.5 728.5L133.5 738L124 740Z" stroke="#001258" stroke-linecap="square" stroke-linejoin="round"/>
<path d="M283.5 825L219 838.5L224 868L290 854.5L283.5 825Z" stroke="#001258" stroke-linecap="square" stroke-linejoin="round"/>
<path d="M321 686.5L267.5 694.5L275.5 713.5L325.5 703L321 686.5Z" stroke="#001258" stroke-linecap="square" stroke-linejoin="round"/>
<path d="M321 713.5L303.5 716L306 725L321 721.5V713.5Z" stroke="#001258" stroke-linecap="square" stroke-linejoin="round"/>
<path d="M270 713.5L255 716L257 727.5L264 726L270 746.5L283.5 743.5L278.5 721.5H272.5L270 713.5Z" stroke="#001258" stroke-linecap="square" stroke-linejoin="round"/>
<path d="M275.5 751L264 753.5L270 771L280.5 768L275.5 751Z" stroke="#001258" stroke-linecap="square" stroke-linejoin="round"/>
<path d="M330.5 305.5H317.5L328 355L341 352L330.5 305.5Z" stroke="#001258" stroke-linecap="square" stroke-linejoin="round"/>
<path d="M341 367.5L330.5 370.5L341 422L354 418.5L341 367.5Z" stroke="#001258" stroke-linecap="square" stroke-linejoin="round"/>
<path d="M366.5 426L351 429.5L354 443.5L370 440L366.5 426Z" stroke="#001258" stroke-linecap="square" stroke-linejoin="round"/>
<path d="M354 334.5L366.5 380.5L394 387V367.5L390.5 319.5L354 334.5Z" stroke="#001258" stroke-linecap="square" stroke-linejoin="round"/>
</svg>
