<svg width="226" height="84" viewBox="0 0 226 84" fill="none" xmlns="http://www.w3.org/2000/svg">
<g filter="url(#filter0_d_327_4014)">
<path d="M16.04 36.16L15.272 39.04H21.944L21.224 36.16C20.808 34.592 20.376 32.928 19.928 31.168C19.512 29.408 19.096 27.712 18.68 26.08H18.488C18.104 27.744 17.704 29.456 17.288 31.216C16.904 32.944 16.488 34.592 16.04 36.16ZM4.712 52L14.504 20.704H23L32.792 52H25.304L23.384 44.56H13.832L11.912 52H4.712ZM44.1316 62.128C42.2756 62.128 40.5956 61.92 39.0916 61.504C37.5876 61.088 36.3876 60.432 35.4916 59.536C34.5956 58.64 34.1476 57.488 34.1476 56.08C34.1476 54.16 35.2836 52.56 37.5556 51.28V51.088C36.9476 50.672 36.4196 50.144 35.9716 49.504C35.5556 48.864 35.3476 48.048 35.3476 47.056C35.3476 46.192 35.6036 45.36 36.1156 44.56C36.6276 43.76 37.2676 43.104 38.0356 42.592V42.4C37.2036 41.824 36.4516 40.992 35.7796 39.904C35.1396 38.816 34.8196 37.584 34.8196 36.208C34.8196 34.288 35.2836 32.704 36.2116 31.456C37.1396 30.176 38.3556 29.216 39.8596 28.576C41.3636 27.936 42.9636 27.616 44.6596 27.616C46.0676 27.616 47.2996 27.808 48.3556 28.192H57.0436V33.328H53.2516C53.4756 33.68 53.6516 34.128 53.7796 34.672C53.9396 35.216 54.0196 35.808 54.0196 36.448C54.0196 38.272 53.6036 39.776 52.7716 40.96C51.9396 42.144 50.8196 43.024 49.4116 43.6C48.0036 44.176 46.4196 44.464 44.6596 44.464C43.7316 44.464 42.7716 44.304 41.7796 43.984C41.2036 44.464 40.9156 45.056 40.9156 45.76C40.9156 46.368 41.1876 46.816 41.7316 47.104C42.2756 47.392 43.2036 47.536 44.5156 47.536H48.3556C51.2996 47.536 53.5396 48.016 55.0756 48.976C56.6436 49.904 57.4276 51.44 57.4276 53.584C57.4276 55.216 56.8836 56.672 55.7956 57.952C54.7076 59.264 53.1716 60.288 51.1876 61.024C49.2036 61.76 46.8516 62.128 44.1316 62.128ZM44.6596 40.192C45.5876 40.192 46.3556 39.856 46.9636 39.184C47.6036 38.512 47.9236 37.52 47.9236 36.208C47.9236 34.96 47.6036 34.016 46.9636 33.376C46.3556 32.704 45.5876 32.368 44.6596 32.368C43.7316 32.368 42.9476 32.688 42.3076 33.328C41.6996 33.968 41.3956 34.928 41.3956 36.208C41.3956 37.52 41.6996 38.512 42.3076 39.184C42.9476 39.856 43.7316 40.192 44.6596 40.192ZM45.2356 57.712C46.8356 57.712 48.1476 57.424 49.1716 56.848C50.1956 56.272 50.7076 55.584 50.7076 54.784C50.7076 54.048 50.3876 53.552 49.7476 53.296C49.1396 53.04 48.2436 52.912 47.0596 52.912H44.6116C43.8116 52.912 43.1396 52.88 42.5956 52.816C42.0836 52.784 41.6356 52.72 41.2516 52.624C40.3876 53.392 39.9556 54.176 39.9556 54.976C39.9556 55.872 40.4356 56.544 41.3956 56.992C42.3876 57.472 43.6676 57.712 45.2356 57.712ZM69.7723 62.128C67.9163 62.128 66.2363 61.92 64.7323 61.504C63.2283 61.088 62.0283 60.432 61.1323 59.536C60.2363 58.64 59.7883 57.488 59.7883 56.08C59.7883 54.16 60.9243 52.56 63.1963 51.28V51.088C62.5883 50.672 62.0603 50.144 61.6123 49.504C61.1963 48.864 60.9883 48.048 60.9883 47.056C60.9883 46.192 61.2443 45.36 61.7563 44.56C62.2683 43.76 62.9083 43.104 63.6763 42.592V42.4C62.8443 41.824 62.0923 40.992 61.4203 39.904C60.7803 38.816 60.4603 37.584 60.4603 36.208C60.4603 34.288 60.9243 32.704 61.8523 31.456C62.7803 30.176 63.9963 29.216 65.5003 28.576C67.0043 27.936 68.6043 27.616 70.3003 27.616C71.7083 27.616 72.9403 27.808 73.9963 28.192H82.6843V33.328H78.8923C79.1163 33.68 79.2923 34.128 79.4203 34.672C79.5803 35.216 79.6603 35.808 79.6603 36.448C79.6603 38.272 79.2443 39.776 78.4123 40.96C77.5803 42.144 76.4603 43.024 75.0523 43.6C73.6443 44.176 72.0603 44.464 70.3003 44.464C69.3723 44.464 68.4123 44.304 67.4203 43.984C66.8443 44.464 66.5563 45.056 66.5563 45.76C66.5563 46.368 66.8283 46.816 67.3723 47.104C67.9163 47.392 68.8443 47.536 70.1562 47.536H73.9963C76.9403 47.536 79.1803 48.016 80.7163 48.976C82.2843 49.904 83.0683 51.44 83.0683 53.584C83.0683 55.216 82.5243 56.672 81.4363 57.952C80.3483 59.264 78.8123 60.288 76.8283 61.024C74.8443 61.76 72.4923 62.128 69.7723 62.128ZM70.3003 40.192C71.2283 40.192 71.9963 39.856 72.6043 39.184C73.2443 38.512 73.5643 37.52 73.5643 36.208C73.5643 34.96 73.2443 34.016 72.6043 33.376C71.9963 32.704 71.2283 32.368 70.3003 32.368C69.3723 32.368 68.5883 32.688 67.9483 33.328C67.3403 33.968 67.0363 34.928 67.0363 36.208C67.0363 37.52 67.3403 38.512 67.9483 39.184C68.5883 39.856 69.3723 40.192 70.3003 40.192ZM70.8763 57.712C72.4763 57.712 73.7883 57.424 74.8123 56.848C75.8363 56.272 76.3483 55.584 76.3483 54.784C76.3483 54.048 76.0283 53.552 75.3883 53.296C74.7803 53.04 73.8843 52.912 72.7003 52.912H70.2523C69.4523 52.912 68.7803 52.88 68.2363 52.816C67.7243 52.784 67.2763 52.72 66.8923 52.624C66.0283 53.392 65.5963 54.176 65.5963 54.976C65.5963 55.872 66.0763 56.544 67.0363 56.992C68.0283 57.472 69.3083 57.712 70.8763 57.712ZM86.9169 52V28.192H93.9729V52H86.9169ZM90.4209 24.688C89.2369 24.688 88.2769 24.352 87.5409 23.68C86.8049 23.008 86.4369 22.112 86.4369 20.992C86.4369 19.872 86.8049 18.976 87.5409 18.304C88.2769 17.632 89.2369 17.296 90.4209 17.296C91.6049 17.296 92.5649 17.632 93.3009 18.304C94.0369 18.976 94.4049 19.872 94.4049 20.992C94.4049 22.112 94.0369 23.008 93.3009 23.68C92.5649 24.352 91.6049 24.688 90.4209 24.688ZM110.839 52.576C108.567 52.576 106.519 52.08 104.695 51.088C102.871 50.096 101.431 48.672 100.375 46.816C99.3185 44.96 98.7905 42.72 98.7905 40.096C98.7905 37.504 99.3185 35.28 100.375 33.424C101.463 31.568 102.871 30.144 104.599 29.152C106.327 28.128 108.135 27.616 110.023 27.616C112.295 27.616 114.167 28.128 115.639 29.152C117.143 30.144 118.263 31.504 118.999 33.232C119.767 34.928 120.151 36.864 120.151 39.04C120.151 39.648 120.119 40.256 120.055 40.864C119.991 41.44 119.927 41.872 119.863 42.16H105.607C105.927 43.888 106.647 45.168 107.767 46C108.887 46.8 110.231 47.2 111.799 47.2C113.495 47.2 115.207 46.672 116.935 45.616L119.287 49.888C118.071 50.72 116.711 51.376 115.207 51.856C113.703 52.336 112.247 52.576 110.839 52.576ZM105.559 37.504H114.151C114.151 36.192 113.831 35.12 113.191 34.288C112.583 33.424 111.575 32.992 110.167 32.992C109.079 32.992 108.103 33.376 107.239 34.144C106.375 34.88 105.815 36 105.559 37.504ZM135.212 52V20.704H142.94L147.98 34.624C148.3 35.52 148.604 36.464 148.892 37.456C149.18 38.448 149.484 39.424 149.804 40.384H149.996C150.316 39.424 150.604 38.448 150.86 37.456C151.148 36.464 151.452 35.52 151.772 34.624L156.716 20.704H164.396V52H157.964V40.528C157.964 39.504 158.012 38.368 158.108 37.12C158.236 35.84 158.364 34.56 158.492 33.28C158.652 32 158.78 30.864 158.876 29.872H158.684L156.14 37.312L151.676 49.264H147.788L143.324 37.312L140.828 29.872H140.636C140.764 30.864 140.892 32 141.02 33.28C141.148 34.56 141.26 35.84 141.356 37.12C141.484 38.368 141.548 39.504 141.548 40.528V52H135.212ZM177.198 52.576C175.022 52.576 173.294 51.888 172.014 50.512C170.734 49.104 170.094 47.392 170.094 45.376C170.094 42.88 171.15 40.928 173.262 39.52C175.374 38.112 178.782 37.168 183.486 36.688C183.422 35.632 183.102 34.8 182.526 34.192C181.982 33.552 181.054 33.232 179.742 33.232C178.75 33.232 177.742 33.424 176.718 33.808C175.694 34.192 174.606 34.72 173.454 35.392L170.91 30.736C172.414 29.808 174.014 29.056 175.71 28.48C177.438 27.904 179.23 27.616 181.086 27.616C184.126 27.616 186.462 28.496 188.094 30.256C189.726 32.016 190.542 34.72 190.542 38.368V52H184.782L184.302 49.552H184.11C183.118 50.448 182.046 51.184 180.894 51.76C179.774 52.304 178.542 52.576 177.198 52.576ZM179.598 47.104C180.398 47.104 181.086 46.928 181.662 46.576C182.27 46.192 182.878 45.696 183.486 45.088V40.912C180.99 41.232 179.262 41.744 178.302 42.448C177.342 43.12 176.862 43.92 176.862 44.848C176.862 45.616 177.102 46.192 177.582 46.576C178.094 46.928 178.766 47.104 179.598 47.104ZM196.511 60.832V28.192H202.271L202.751 30.544H202.943C203.871 29.712 204.911 29.024 206.063 28.48C207.247 27.904 208.463 27.616 209.711 27.616C212.591 27.616 214.863 28.72 216.527 30.928C218.191 33.104 219.023 36.032 219.023 39.712C219.023 42.432 218.543 44.752 217.583 46.672C216.623 48.592 215.375 50.064 213.839 51.088C212.335 52.08 210.719 52.576 208.991 52.576C207.967 52.576 206.975 52.368 206.015 51.952C205.055 51.504 204.159 50.88 203.327 50.08L203.567 53.872V60.832H196.511ZM207.359 46.816C208.575 46.816 209.615 46.256 210.479 45.136C211.343 44.016 211.775 42.24 211.775 39.808C211.775 35.52 210.399 33.376 207.647 33.376C206.271 33.376 204.911 34.096 203.567 35.536V45.28C204.207 45.856 204.847 46.256 205.487 46.48C206.127 46.704 206.751 46.816 207.359 46.816Z" fill="#E5C44E"/>
<path d="M95 25.5H86V16.5H95V25.5Z" fill="#011669" stroke="#011669"/>
</g>
<g clip-path="url(#clip0_327_4014)">
<path fill-rule="evenodd" clip-rule="evenodd" d="M92.0764 22.3008C94.9179 20.864 99.8235 17.7989 100.841 13.373C101.337 11.2205 100.956 8.9594 99.7842 7.08724C98.6122 5.21508 96.7444 3.88518 94.5919 3.39011C92.4393 2.89503 90.1782 3.27534 88.3061 4.44737C86.4339 5.6194 85.104 7.48714 84.6089 9.6397C83.591 14.0656 86.6647 18.9658 88.593 21.4996C89.4192 22.5853 90.8589 22.9164 92.0764 22.3008ZM95.4308 12.1298C95.0872 13.624 93.5973 14.5567 92.1032 14.213C90.609 13.8694 89.6763 12.3796 90.02 10.8854C90.3636 9.39124 91.8535 8.45856 93.3476 8.8022C94.8418 9.14585 95.7745 10.6357 95.4308 12.1298Z" fill="#E5C44E"/>
<path d="M92.0764 22.3008L91.8462 21.8454L91.8462 21.8454L92.0764 22.3008ZM99.7842 7.08724L99.3517 7.358L99.7842 7.08724ZM88.3061 4.44737L88.5768 4.87987L88.3061 4.44737ZM88.593 21.4996L88.1869 21.8086L88.1869 21.8086L88.593 21.4996ZM100.344 13.2587C99.869 15.3245 98.4754 17.11 96.8063 18.5742C95.1418 20.0344 93.2463 21.1374 91.8462 21.8454L92.3067 22.7561C93.748 22.0273 95.7261 20.8794 97.4793 19.3414C99.2278 17.8075 100.796 15.8475 101.339 13.4874L100.344 13.2587ZM99.3517 7.358C100.452 9.11545 100.809 11.238 100.344 13.2587L101.339 13.4874C101.864 11.203 101.461 8.80335 100.217 6.81648L99.3517 7.358ZM94.4775 3.88738C96.4982 4.35212 98.2515 5.60054 99.3517 7.358L100.217 6.81648C98.9728 4.82961 96.9907 3.41823 94.7062 2.89283L94.4775 3.88738ZM88.5768 4.87987C90.3343 3.77965 92.4568 3.42265 94.4775 3.88738L94.7062 2.89283C92.4218 2.36742 90.0222 2.77104 88.0353 4.01487L88.5768 4.87987ZM85.1062 9.75407C85.5709 7.73339 86.8194 5.98009 88.5768 4.87987L88.0353 4.01487C86.0484 5.25871 84.637 7.24088 84.1116 9.52533L85.1062 9.75407ZM88.999 21.1906C88.0489 19.942 86.8257 18.1218 85.9664 16.0812C85.1047 14.0348 84.6311 11.8199 85.1062 9.75407L84.1116 9.52533C83.5688 11.8854 84.1231 14.3335 85.0259 16.4772C85.931 18.6266 87.2088 20.5233 88.1869 21.8086L88.999 21.1906ZM91.8462 21.8454C90.8483 22.35 89.6762 22.0804 88.999 21.1906L88.1869 21.8086C89.1622 23.0902 90.8695 23.4828 92.3067 22.7561L91.8462 21.8454ZM91.9888 14.7103C93.7576 15.1171 95.5213 14.013 95.9281 12.2442L94.9336 12.0155C94.6531 13.235 93.4371 13.9963 92.2176 13.7158L91.9888 14.7103ZM89.5227 10.771C89.1159 12.5398 90.22 14.3035 91.9888 14.7103L92.2176 13.7158C90.998 13.4353 90.2368 12.2193 90.5173 10.9998L89.5227 10.771ZM93.462 8.30493C91.6932 7.89812 89.9295 9.00223 89.5227 10.771L90.5173 10.9998C90.7977 9.78025 92.0137 9.019 93.2333 9.29948L93.462 8.30493ZM95.9281 12.2442C96.3349 10.4754 95.2308 8.71173 93.462 8.30493L93.2333 9.29948C94.4528 9.57996 95.214 10.796 94.9336 12.0155L95.9281 12.2442Z" fill="#E5C44E"/>
</g>
<defs>
<filter id="filter0_d_327_4014" x="0.711914" y="16" width="222.311" height="54.1279" filterUnits="userSpaceOnUse" color-interpolation-filters="sRGB">
<feFlood flood-opacity="0" result="BackgroundImageFix"/>
<feColorMatrix in="SourceAlpha" type="matrix" values="0 0 0 0 0 0 0 0 0 0 0 0 0 0 0 0 0 0 127 0" result="hardAlpha"/>
<feOffset dy="4"/>
<feGaussianBlur stdDeviation="2"/>
<feComposite in2="hardAlpha" operator="out"/>
<feColorMatrix type="matrix" values="0 0 0 0 0 0 0 0 0 0 0 0 0 0 0 0 0 0 0.25 0"/>
<feBlend mode="normal" in2="BackgroundImageFix" result="effect1_dropShadow_327_4014"/>
<feBlend mode="normal" in="SourceGraphic" in2="effect1_dropShadow_327_4014" result="shape"/>
</filter>
<clipPath id="clip0_327_4014">
<rect x="83.978" width="22.2084" height="22.2084" rx="3.37959" transform="rotate(12.9523 83.978 0)" fill="white"/>
</clipPath>
</defs>
</svg>
